<?xml version="1.0" standalone="no"?>
<!DOCTYPE svg PUBLIC "-//W3C//DTD SVG 20010904//EN"
 "http://www.w3.org/TR/2001/REC-SVG-20010904/DTD/svg10.dtd">
<svg version="1.0" xmlns="http://www.w3.org/2000/svg"
 width="177.000000pt" height="185.000000pt" viewBox="0 0 177.000000 185.000000"
 preserveAspectRatio="xMidYMid meet">

<g transform="translate(0.000000,185.000000) scale(0.100000,-0.100000)"
fill="#ffffff" stroke="none">
<path d="M800 1323 c-202 -31 -364 -160 -407 -326 -11 -44 -11 -54 2 -74 l15
-23 470 0 c425 0 470 2 485 17 23 22 14 79 -25 160 -83 169 -324 280 -540 246z
m159 -24 c145 -23 256 -85 328 -182 50 -69 82 -160 63 -183 -11 -12 -79 -14
-474 -12 l-461 3 2 47 c4 146 185 298 387 328 74 11 85 11 155 -1z"/>
<path d="M715 1210 c-16 -4 -42 -12 -57 -18 -35 -14 -118 -90 -118 -108 0 -23
13 -16 44 22 34 43 113 82 173 86 26 2 43 8 43 16 0 13 -37 14 -85 2z"/>
<path d="M402 864 c-12 -8 -22 -22 -22 -30 0 -20 13 -18 33 6 28 33 63 26 92
-20 23 -37 29 -40 69 -40 43 0 76 21 76 49 0 6 11 17 25 23 29 13 75 -2 75
-26 0 -25 30 -46 66 -46 46 0 70 14 78 44 13 50 73 45 105 -9 18 -31 25 -35
64 -35 44 0 77 21 77 49 0 6 11 17 25 23 29 13 75 -2 75 -26 0 -25 30 -46 66
-46 46 0 74 16 74 40 0 26 -12 25 -28 -1 -18 -29 -72 -23 -89 11 -17 34 -41
50 -76 50 -39 0 -64 -15 -71 -45 -12 -46 -90 -46 -102 1 -7 29 -32 44 -71 44
-35 0 -59 -16 -76 -50 -10 -19 -20 -25 -47 -25 -28 0 -37 5 -48 27 -29 62
-103 65 -141 6 -16 -26 -32 -38 -47 -38 -33 0 -54 10 -54 26 0 45 -82 70 -128
38z"/>
<path d="M392 748 c-14 -14 -16 -66 -4 -86 7 -10 113 -12 498 -10 l489 3 3 44
c2 28 -1 47 -10 52 -22 14 -962 11 -976 -3z m968 -48 l0 -30 -477 2 -478 3 -3
28 -3 27 480 0 481 0 0 -30z"/>
<path d="M380 570 c0 -61 22 -104 63 -123 31 -15 82 -17 436 -17 431 0 450 2
485 51 10 15 16 44 16 76 l0 53 -500 0 -500 0 0 -40z m980 -10 c0 -37 -23 -85
-45 -94 -9 -3 -207 -6 -439 -6 l-423 0 -21 23 c-11 12 -24 34 -27 49 -15 61
-40 58 480 58 l475 0 0 -30z"/>
</g>
</svg>
