<?xml version="1.0" encoding="UTF-8"?>
<!DOCTYPE svg PUBLIC "-//W3C//DTD SVG 1.1//EN" "http://www.w3.org/Graphics/SVG/1.1/DTD/svg11.dtd">
<svg xmlns="http://www.w3.org/2000/svg" version="1.1" width="600px" height="403px" style="shape-rendering:geometricPrecision; text-rendering:geometricPrecision; image-rendering:optimizeQuality; fill-rule:evenodd; clip-rule:evenodd" xmlns:xlink="http://www.w3.org/1999/xlink">
<g><path style="opacity:0.972" fill="#49a6d7" d="M 286.5,-0.5 C 291.833,-0.5 297.167,-0.5 302.5,-0.5C 320.196,5.86582 328.03,18.5325 326,37.5C 319.209,58.4817 305.043,66.315 283.5,61C 264.745,51.3143 258.912,36.481 266,16.5C 270.661,8.10265 277.495,2.43599 286.5,-0.5 Z"/></g>
<g><path style="opacity:0.992" fill="#49a6d7" d="M 272.5,67.5 C 377.178,62.9324 460.678,102.266 523,185.5C 555.882,233.652 572.382,286.985 572.5,345.5C 387.5,345.5 202.5,345.5 17.5,345.5C 19.5198,249.616 58.8531,173.45 135.5,117C 176.904,88.6282 222.571,72.1282 272.5,67.5 Z M 245.5,84.5 C 249.571,84.2338 253.571,84.5672 257.5,85.5C 260.402,87.8508 261.069,90.6842 259.5,94C 188.144,106.448 131.644,141.948 90,200.5C 77.7396,219.693 68.7396,240.36 63,262.5C 58.4852,265.252 54.1519,264.918 50,261.5C 49.1251,260.127 48.6251,258.627 48.5,257C 57.0668,224.027 72.5668,194.861 95,169.5C 135.209,123.643 185.376,95.3092 245.5,84.5 Z"/></g>
<g><path style="opacity:0.987" fill="#49a6d7" d="M 599.5,373.5 C 599.5,377.5 599.5,381.5 599.5,385.5C 597.013,393.324 592.013,398.991 584.5,402.5C 394.5,402.5 204.5,402.5 14.5,402.5C 6.98714,398.991 1.98714,393.324 -0.5,385.5C -0.5,381.5 -0.5,377.5 -0.5,373.5C 2.8301,364.678 9.16343,359.178 18.5,357C 205.833,356.333 393.167,356.333 580.5,357C 589.837,359.178 596.17,364.678 599.5,373.5 Z"/></g>
</svg>
